<?xml version="1.0" encoding="utf-8"?>
<!-- Generator: Adobe Illustrator 26.0.3, SVG Export Plug-In . SVG Version: 6.00 Build 0)  -->
<svg version="1.1" id="Layer_1" xmlns="http://www.w3.org/2000/svg" xmlns:xlink="http://www.w3.org/1999/xlink" x="0px" y="0px"
	 viewBox="0 0 1584 792" style="enable-background:new 0 0 1584 792;" xml:space="preserve">
<style type="text/css">
	.st0{fill-rule:evenodd;clip-rule:evenodd;fill:#D1E9DA;}
	.st1{fill-rule:evenodd;clip-rule:evenodd;fill:#688E77;}
	.st2{fill:none;stroke:#D3DDEC;stroke-width:2;}
	.st3{fill-rule:evenodd;clip-rule:evenodd;fill:#04431D;}
	.st4{fill:#74BC90;}
	.st5{fill:#179047;}
	.st6{opacity:0.64;fill:#A2D2B5;enable-background:new    ;}
	.st7{fill:#A2D2B5;fill-opacity:0.32;}
	.st8{fill:#45A66C;fill-opacity:0.48;}
	.st9{fill:#0B4823;fill-opacity:0.64;}
	.st10{fill:#688E77;fill-opacity:0.8;}
	.st11{fill:#9BB4A5;fill-opacity:0.48;}
	.st12{fill:#CDD9D2;}
</style>
<g>
	<path class="st0" d="M875.5,699.4l-6.1,87.4l187.9-68.4l6.1-87.4L875.5,699.4z"/>
	<path class="st1" d="M574.4,678.1l-6.1,87.3l563.3-205l6.1-87.3L574.4,678.1z"/>
	<path class="st2" d="M1091.4,704.1l-6,85.2l185.9-67.7l6-85.2L1091.4,704.1L1091.4,704.1z"/>
	<path class="st3" d="M793.4,465l-6.1,87.3l563.3-205l6.1-87.3L793.4,465z"/>
	<path class="st0" d="M444.5,462.4l-6.1,87.4l187.9-68.4l6.1-87.4L444.5,462.4z"/>
	<path class="st4" d="M544,220l100-50.4l-96.8-48.8c-2-1-4.4-1-6.4,0L444,169.6L544,220z"/>
	<path class="st5" d="M643,210l-100,49.9v-40L643,170V210z"/>
	<path class="st6" d="M544,259.9L444,210v-40l100,49.9V259.9z"/>
	<g transform="rotate(-133 358.236 311.158)">
		<path class="st7" d="M87,86.7l85.8-43.3L89.7,1.5c-1.7-0.9-3.8-0.9-5.5,0l-83,41.9L87,86.7L87,86.7z"/>
		<path class="st8" d="M172.3,76.8l-85.8,42.4l0-34l85.8-42.4L172.3,76.8z"/>
		<path class="st9" d="M86.7,119.7L0.9,77.3l0-34l85.8,42.4C86.7,85.7,86.7,119.7,86.7,119.7z"/>
	</g>
	<g transform="rotate(-44 1028 -223.824)">
		<path class="st10" d="M29,28.9l29-14.6L29.9,0.2c-0.6-0.3-1.3-0.3-1.9,0L0,14.3L29,28.9z"/>
		<path class="st11" d="M48.7,54L28.7,64l0-35.1l29-14.4l0,33.8c0,0.8-0.4,1.5-1.1,1.8L48.7,54L48.7,54z"/>
		<path class="st12" d="M29,64L1.1,50.1C0.4,49.7,0,49,0,48.3l0-33.8l29,14.4L29,64L29,64z"/>
	</g>
</g>
</svg>
