<?xml version="1.0" encoding="utf-8"?>
<!-- Generator: Adobe Illustrator 26.0.3, SVG Export Plug-In . SVG Version: 6.00 Build 0)  -->
<svg version="1.1" xmlns="http://www.w3.org/2000/svg" xmlns:xlink="http://www.w3.org/1999/xlink" x="0px" y="0px"
	 viewBox="0 0 547 411" style="enable-background:new 0 0 547 411;" xml:space="preserve">
<style type="text/css">
	.st0{display:none;}
	.st1{fill:#FFFFFF;}
	.st2{fill:#BBBDBF;}
	.st3{fill:#034DA1;}
	.st4{fill:#FFF100;}
	.st5{enable-background:new    ;}
	.st6{fill:#626366;}
</style>
<g id="Layer_2" class="st0">
</g>
<g id="Layer_1">
	<rect class="st1" width="547" height="411"/>
	<g>
		<g>
			<g id="Page-1_00000136407581875336040560000004852862083298936511_">
				<g id="Version-2-menu_00000101819193853751299630000013314360322051969667_" transform="translate(-131.000000, -108.000000)">
					<g id="Site-header_00000143618912461922435670000004996484293534195082_" transform="translate(131.000000, 108.000000)">
						<g id="logo-copy_00000072994841111657048510000001907607107245255823_">
							<g id="Group-20_00000023967754456473831490000012311687714809710519_">
								<g id="Group-18-Copy_00000183244336577939495600000014489342871548295820_">
									<path id="Fill-40_00000105396266272296673570000002553092109423296906_" class="st2" d="M20.4,171.1c0,0,80-10.5,82.4-10.9
										c3.4-0.6,6.6-1.2,9.5-2c6.4-1.8,12.5-4.4,17.7-8c5-3.4,9.9-8.4,14.5-13.9c3-3.4,6-8,9-12.5v-2c-3.4,5.2-6.8,9.7-10.3,13.5
										c-4.6,5.2-9.5,9.5-14.5,12.7c-5,3.2-10.9,5.8-17.1,7.4c-2.8,0.8-5.8,1.2-9.2,1.8c-2.2,0.4-4.4,0.6-6.6,0.8
										c-1,0-75.4,7.8-75.4,7.8V171.1z"/>
									<path id="Fill-41_00000044168341552036937840000007917191811206276764_" class="st2" d="M127.7,157.6
										c-5,2.8-10.9,5-17.3,6.2c-2.8,0.6-5.6,1-9,1.4c-2,0.2-4,0.4-6,0.6c-1,0-2.2,0.2-3.2,0.2c-24.5,2.4-48.9,4.6-71.8,6.8v5.2
										c22.9-2.8,47.7-5.8,72.2-8.6c1-0.2,2.2-0.2,3.2-0.4c2-0.2,4-0.4,6-0.8c3.4-0.4,6.6-1,9.2-1.6c6.6-1.4,12.7-3.8,17.9-7
										c5.2-3.2,9.7-7.4,14.7-12.9c3-3.4,6.4-8,9.7-12.5v-2c-3.8,5-7.2,9.5-10.9,13.1C137.6,150.8,132.8,154.8,127.7,157.6"/>
									<path id="Fill-42_00000010301025401512298100000016840733813303723699_" class="st2" d="M141.8,156.4
										c-4.8,4.4-10.1,8-15.1,10.7c-5,2.4-10.7,4.2-17.3,5.2c-2.8,0.4-5.6,0.8-9,1.2l-80,6.4v5.2l71-7.6l9.2-1
										c3.4-0.4,6.4-0.8,9.2-1.4c6.8-1.2,12.7-3.2,17.9-5.8c5.4-2.8,10.7-7.2,15.7-12.1c3.4-3.2,6.4-7.4,9.9-11.7v-1.8
										C149.2,148.8,145.6,152.8,141.8,156.4"/>
									<path id="Fill-43_00000000942542667107111460000003183815662589652880_" class="st2" d="M122.5,183.4
										c-4.6,2.6-8,4.2-14.7,4.8c-4,0.4-8,0.6-12.1,0.8c-2,0-3.8,0.2-5.8,0.4c-12.1,0.6-23.9,1.4-36,2.2L20.4,194v5.2l33.8-3.2
										c10.9-1,23.5-2.2,36-3.2l9-0.6c3.4-0.2,6.4-0.6,9-1c6.8-0.8,12.7-2.2,17.9-4.2c5.6-2,10.9-5.4,16.1-9.2
										c4.8-3.4,11.3-10.3,11.3-10.5v-1.8c-4.2,4.2-6.8,6.6-11.5,9.7C136.2,179.1,126.7,181.1,122.5,183.4"/>
									<path id="Fill-44_00000110443588777425603510000015569607523459709571_" class="st2" d="M124.1,193.4
										c-5,1.4-10.7,2.4-17.3,3c-2.6,0.2-5.6,0.4-8.8,0.6l-8.8,0.4c-22.1,1-44.2,2.2-68.6,3.4v5.2c23.3-1.8,46-3.6,69-5.2l8.8-0.6
										c3.4-0.2,6.2-0.4,9-0.8c6.8-0.8,12.7-2,17.7-3.6c5.6-1.8,11.3-4.4,16.5-7.8c3.8-2.4,7.8-5.4,11.9-9l0,0
										c-4.4,3.8-8.6,4.6-12.9,7.2C135.2,189.4,129.7,191.8,124.1,193.4"/>
									<path id="Fill-45_00000093177433404924952740000004361923107532380075_" class="st2" d="M123.3,202.1
										c-5,1.2-10.7,2-17.3,2.4c-2.6,0.2-5.4,0.4-8.8,0.4l-8.8,0.4c-22.3,0.8-44.8,1.8-68,2.8v5.2c22.9-1.6,45.4-3,68.2-4.6
										l8.8-0.6c3.4-0.2,6.2-0.4,8.8-0.6c6.8-0.6,12.5-1.6,17.7-3c5.8-1.6,11.5-3.8,16.9-6.6c4.2-2.2,8.2-4.8,12.5-8v-2.2
										c-4.6,3.4-9,6-13.5,8.2C134.6,198.6,128.9,200.7,123.3,202.1"/>
									<path id="Fill-46_00000018931408676727324180000005790832387189092518_" class="st2" d="M122.5,210.5
										c-5,1-10.7,1.6-17.3,1.8c-2.6,0.2-5.2,0.2-8.6,0.4l-76.2,2v5.2l67.6-3.6l8.8-0.4c3.4-0.2,6.2-0.4,8.8-0.6
										c6.8-0.6,12.3-1.2,17.5-2.4c5.8-1.2,11.7-3,17.1-5.4c4.4-1.8,8.6-4,13.3-6.8v-2c-4.8,2.8-9.5,5-14.1,6.8
										C134,207.9,128.3,209.5,122.5,210.5"/>
									<path id="Fill-47_00000118395393358354697650000008427452845612856492_" class="st2" d="M121.9,219
										c-9.5,1.2-18.9,1.4-28.4,1.6c-2.2,0-4.2,0-6.4,0.2L20.4,222v5.2l67-2.8c2.2,0,4.2-0.2,6.4-0.2c9.5-0.4,19.1-0.8,28.6-2.2
										c6-1,11.9-2.4,17.1-4.2c4.4-1.4,9-3.4,13.7-5.8v-2c-4.8,2.2-9.9,4.2-14.5,5.6C133.6,216.9,127.9,218.3,121.9,219"/>
									<path id="Fill-48_00000164484596134760228860000012332182161789408420_" class="st2" d="M121.5,227.6
										c-8.8,0.8-17.7,0.8-26.5,0.8c-2.6,0-5.4,0-8,0c-22.1,0-44.2,0.2-66.6,0.4v5.2c21.3-0.8,44-1.4,66.8-2.2
										c2.6,0,5.4-0.2,8-0.2c8.6-0.2,17.7-0.4,26.5-1.4c6.2-0.6,11.9-1.6,17.3-3c4.6-1.2,9.5-2.8,14.5-4.6v-1.8
										c-5,1.8-10.1,3.2-14.9,4.4C133.2,226.4,127.5,227.2,121.5,227.6"/>
									<path id="Fill-49_00000145750411225619455960000004475456062085522071_" class="st2" d="M121.1,236
										c-3.6,0.2-7.6,0.2-12.1,0.2c-1.6,0-3.4,0-5,0L86.7,236c-11.9,0-23.5-0.2-34.6-0.2L20.4,236v5.2l32-0.8
										c11.1-0.2,22.7-0.6,34.4-0.8l17.3-0.2c4.8,0,11.1-0.2,17.3-0.6c6.2-0.4,11.9-1,17.3-1.8c4.8-0.8,9.9-1.8,14.9-3v-1.8
										c-5,1.2-10.3,2.2-15.1,2.8C132.8,235.4,127.3,235.8,121.1,236"/>
									<path id="Fill-50_00000053503432379176729920000001061968831057102760_" class="st2" d="M103.8,244.3l-17.3-0.2
										c-21.9-0.4-43.8-0.8-66.2-1.2v5.2c21.3-0.2,43.8-0.4,66.2-0.6l17.3-0.2c5.8,0,11.5-0.2,17.3-0.4
										c11.9-0.4,22.3-1.2,32.4-2.6v-1.8c-9.9,1-20.5,1.6-32.4,1.8C115.3,244.3,109.4,244.3,103.8,244.3"/>
									<path id="Fill-51_00000165223935627809726550000016685535116179857552_" class="st2" d="M153.3,253.5l-132.9-3.4v5.2h132.9
										V253.5z"/>
									<path id="Fill-52_00000166669648313113481220000018306424314906819468_" class="st2" d="M141.4,166.1c-5,4-9,7-15.1,9.5
										c-5.4,2.2-11.3,3-17.7,4c-4.2,0.6-8.6,1.4-12.9,1.8c-1.8,0.2-3.4,0.2-5.2,0.4l-70.2,5v5.2l70.2-6.8l9-0.8
										c3.4-0.4,6.4-0.6,9.2-1.2c6.8-1,12.7-2.8,17.9-5.2c5.4-2.4,11.1-6.4,16.1-10.7c3.4-3,6.8-6.6,10.5-10.7v-1.8
										C148.8,159.2,145.2,163.1,141.4,166.1"/>
									<path id="Fill-53_00000026853629783254118970000006252112280860088210_" class="st2" d="M209.8,121.8c0,0,23.9,38,28.4,45
										c4.4,7,9.5,12.5,27.1,16.3c17.7,3.8,25.3,5.4,25.3,5.4v1.4c0,0-11.3-2.4-25.7-5.6s-20.3-4.2-26.9-13.5
										c-5.4-7.6-28.2-40-28.2-40L209.8,121.8z"/>
									<path id="Fill-54_00000062903696839231651120000014446949821584831921_" class="st2" d="M209.8,165.3
										c0,0,21.7,22.7,28.2,29.4c6.6,7,15.3,9.5,27.1,11.7c11.3,2,25.5,4.4,25.5,4.4v1.2c0,0-13.5-2.2-25.5-4.2
										c-11.9-2-20.3-3.2-27.1-9.5c-6-5.6-27.9-26.1-27.9-26.1L209.8,165.3L209.8,165.3z"/>
									<path id="Fill-55_00000116204036077460870050000001199510018637038755_" class="st2" d="M209.8,175.7
										c0,0,20.7,19.3,28.2,25.7c6.8,6,12.3,7.8,27.1,10.7c14.9,2.6,25.5,4.2,25.5,4.2v1.4c0,0-13.5-2.2-25.5-4.2
										c-12.1-2-19.9-2.6-27.1-8.6c-8.4-6.8-28.2-22.9-28.2-22.9V175.7z"/>
									<path id="Fill-56_00000026127159120278141380000002558754226428437921_" class="st2" d="M209.8,186.6
										c0,0,23.7,18.7,28.2,22.1c4.4,3.2,10.3,7,27.1,9.7c16.9,2.4,25.5,3.6,25.5,3.6v1.4c0,0-15.3-2.2-25.5-3.4
										c-10.3-1.2-18.1-1.8-27.1-7.8c-8.8-5.8-28.2-19.5-28.2-19.5V186.6z"/>
									<path id="Fill-57_00000113331415009487305740000008569486503478291328_" class="st2" d="M209.8,197
										c0,0,23.7,15.9,28.2,18.3c4.4,2.4,9.9,6.6,27.1,8.8c17.3,2.2,25.5,3.2,25.5,3.2v1.4c0,0-14.3-1.6-25.5-2.8
										c-11.3-1.2-18.9-2.8-27.1-7.4s-28.2-16.1-28.2-16.1V197z"/>
									<path id="Fill-58_00000072243659317816075260000000269370683154377142_" class="st2" d="M209.8,207.7
										c0,0,20.9,11.5,28.2,14.9c7.8,4,14.7,5.8,27.1,7.4c12.3,1.4,25.5,2.8,25.5,2.8v1.2c0,0-12.3-1.4-25.5-2.6
										c-13.1-1.2-17.7-1.8-27.1-6c-8.4-3.8-28.2-12.9-28.2-12.9V207.7z"/>
									<path id="Fill-59_00000175313525491653455570000007354342409762398898_" class="st2" d="M209.8,218.3c0,0,16.5,7,28.2,11.7
										c11.5,4.6,20.1,5,27.1,5.6c3,0.4,25.3,2.6,25.3,2.6v1.2c0,0-13.3-1-25.5-2.2c-12.1-1-17.3-1.6-27.1-4.8
										c-9.9-3.2-28.2-9.7-28.2-9.7L209.8,218.3L209.8,218.3z"/>
									<path id="Fill-60_00000070820519415673684060000002986409972837260212_" class="st2" d="M209.8,229.2
										c0,0,16.7,5.2,28.2,8.2c11.5,3,21.9,4.2,27.1,4.6c5.2,0.4,25.5,2,25.5,2v1.2c0,0-11.5-0.8-25.5-1.8
										c-11.5-0.8-20.5-1.6-27.1-3.2c-7.4-1.6-28.2-6.6-28.2-6.6V229.2z"/>
									<path id="Fill-61_00000029040871044116404000000006353667502219293064_" class="st2" d="M209.8,239.9
										c0,0,13.7,2.4,28.2,4.8c10.9,1.8,25.5,3,27.1,3s25.5,1.8,25.5,1.8v1.2c0,0-15.3-0.8-25.5-1.4c-10.7-0.6-21.1-1.2-27.1-1.8
										c-13.5-1.4-28.2-3.2-28.2-3.2V239.9z"/>
									<path id="Fill-62_00000056411656045744203020000007050814115280618121_" class="st2" d="M209.8,251.1c0,0,21.5,0.8,28.2,1
										c6.6,0.2,52.7,2,52.7,2v1.2h-80.8V251.1z"/>
									<path id="Fill-63_00000023274167236036318590000010123476942753474213_" class="st2" d="M265.1,189
										c-19.5-4.2-23.9-11.3-27.1-15.7c-3.2-4.4-27.9-40.6-27.9-40.6v8.2c1,1.2,22.1,29,28.2,36.6c6.6,8.6,17.1,10.7,27.1,12.7
										c10.1,2.2,25.5,5.2,25.5,5.2v-1.2C290.6,194.2,270.1,190.2,265.1,189"/>
									<path id="Fill-64_00000120527416188688437590000010993291034684359605_" class="st2" d="M265.1,194.8
										c-16.1-3.2-22.5-8.2-27.1-14.3c-4.6-6.2-27.9-36.8-27.9-36.8v7.6c1,1.2,22.3,26.3,27.9,33c6.6,7.6,15.9,9.7,27.1,11.7
										c11.3,2,25.5,4.8,25.5,4.8v-1.2C290.6,199.6,274.3,196.6,265.1,194.8"/>
									<path id="Fill-65_00000163053094651514952990000010778329757005760143_" class="st2" d="M265.1,200.7
										c-16.7-3.2-20.1-5.8-27.1-13.7c-4.4-4.8-27.1-31.6-28.2-32.8v7c0,0,21.1,22.5,27.9,29.4c8.8,8.8,17.3,9.5,27.1,11.3
										c9.9,1.8,25.5,4.6,25.5,4.6v-1.2C290.6,205.3,271.7,202.1,265.1,200.7"/>
									<path id="Fill-66_00000033359433322319737630000015273580280368317597_" class="st3" d="M192.1,177.3H75.7v77.8h116.4
										V177.3z"/>
									<path id="Fill-67_00000086677858122859495090000013296695060346882230_" class="st4" d="M135.2,188.4h4L136,191l1.2,4
										l-3.2-2.4l-3.2,2.4l1.2-4l-3.2-2.6h4l1.2-4L135.2,188.4z"/>
									<path id="Fill-68_00000053540904979350677740000016611758656711923854_" class="st4" d="M135.2,240.3h4l-3.2,2.4l1.2,3.8
										l-3.2-2.4l-3.2,2.4l1.2-3.8l-3.2-2.4h4l1.2-3.8L135.2,240.3z"/>
									<path id="Fill-69_00000042001238267072927760000005408130033208470929_" class="st4" d="M148,236.8h4l-3.2,2.4l1.2,3.8
										l-3.2-2.4l-3.2,2.4l1.2-3.8l-3.2-2.4h4l1.2-3.8L148,236.8z"/>
									<path id="Fill-70_00000102510674666125138660000007726816404302037380_" class="st4" d="M148,191.8h4l-3.2,2.4l1.2,3.8
										l-3.2-2.4l-3.2,2.6l1.4-4l-3.2-2.4h4l1.2-3.8L148,191.8z"/>
									<path id="Fill-71_00000138554775704592235200000003587391475488831931_" class="st4" d="M157.7,201.5h4l-3.2,2.4l1.2,3.8
										l-3.2-2.4l-3.2,2.4l1.2-3.8l-3.2-2.4h4l1.2-3.8L157.7,201.5z"/>
									<path id="Fill-72_00000002342725997486877990000001188372933263230113_" class="st4" d="M157.7,227.6h4l-3.2,2.4l1.2,3.8
										l-3.2-2.4l-3.2,2.4l1.2-3.8l-3.2-2.4h4l1.2-3.8L157.7,227.6z"/>
									<path id="Fill-73_00000144340027659100643620000005760204353938710958_" class="st4" d="M161.3,214.3h4l-3.2,2.4l1.2,3.8
										l-3.2-2.4l-3.2,2.4l1.2-3.8l-3.4-2.4h4l1.2-3.8L161.3,214.3z"/>
									<path id="Fill-74_00000055682400886423773300000004499366919711112639_" class="st4" d="M121.9,191.8h4l-3.2,2.4l1.2,3.8
										l-3-2.2l-3.4,2.4l1.2-3.8l-3.2-2.4h4l1.4-3.8L121.9,191.8z"/>
									<path id="Fill-75_00000026158779774748239440000003586289154583401091_" class="st4" d="M112.6,201.5h4l-3.2,2.4l1.2,3.8
										l-3.2-2.4l-3.2,2.4l1.2-3.8l-3.2-2.4h4l1.2-3.8L112.6,201.5z"/>
									<path id="Fill-76_00000170249837779488235010000006824687739295061388_" class="st4" d="M109.2,214.3h4l-3.2,2.4l1.2,3.8
										l-3.2-2.4l-3.2,2.4l1.2-3.8l-3.2-2.4h4l1.2-3.8L109.2,214.3z"/>
									<path id="Fill-77_00000013164431028738564130000003783928526697021835_" class="st4" d="M112.6,227.6h4l-3.2,2.4l1.2,3.8
										l-3.2-2.4l-3.2,2.4l1.2-3.8l-3.2-2.4h4l1.2-3.8L112.6,227.6z"/>
									<path id="Fill-78_00000042727668039645889450000017736397105243439014_" class="st4" d="M122.1,237h4l-3.2,2.4l1.2,3.8
										l-3.2-2.4l-3.2,2.4l1.2-3.8l-3.2-2.4h4l1.2-3.8L122.1,237z"/>
								</g>
							</g>
						</g>
					</g>
				</g>
			</g>
			<g class="st5">
				<path class="st6" d="M308.7,188.4c0-0.6,0.2-0.8,0.8-0.8h14.9c0.6,0,0.8,0.2,0.8,0.8v2.4c0,0.4-0.2,0.8-0.8,0.8h-11.1v7h9.9
					c0.6,0,0.8,0.2,0.8,0.8v2.4c0,0.4-0.2,0.8-0.8,0.8h-9.9v8h11.3c0.4,0,0.8,0.2,0.8,0.8v2.4c0,0.4-0.2,0.8-0.8,0.8h-15.1
					c-0.6,0-0.8-0.2-0.8-0.8V188.4z"/>
				<path class="st6" d="M345.7,214.5h-2.8c-0.2,0-0.4,0-0.6-0.2c-0.2-0.2-0.2-0.4-0.2-0.6v-1.4l0,0c-0.4,0.2-0.8,0.6-1.4,0.8
					c-0.6,0.2-1,0.6-1.6,0.8c-0.6,0.2-1.2,0.4-1.8,0.6c-0.6,0.2-1.2,0.2-1.8,0.2c-1.4,0-2.4-0.2-3.2-0.6c-0.8-0.4-1.4-0.8-1.8-1.6
					c-0.4-0.6-0.6-1.4-0.8-2.4c-0.2-1-0.2-1.8-0.2-3v-11.9c0-0.6,0.2-0.8,0.8-0.8h3c0.4,0,0.8,0.2,0.8,0.8v11.3c0,0.6,0,1.2,0.2,1.6
					c0,0.4,0.2,0.8,0.4,1.2c0.2,0.4,0.6,0.6,0.8,0.8c0.2,0.2,0.8,0.2,1.4,0.2c0.4,0,0.8,0,1.4-0.2c0.6-0.2,1-0.4,1.6-0.6
					c0.6-0.2,1-0.4,1.4-0.6c0.4-0.2,0.8-0.4,1-0.6v-13.5c0-0.2,0-0.4,0.2-0.6c0.2-0.2,0.4-0.2,0.6-0.2h2.8c0.6,0,0.8,0.2,0.8,0.8
					v18.3C346.5,214.1,346.3,214.5,345.7,214.5z"/>
				<path class="st6" d="M356,213.7c0,0.6-0.2,0.8-0.8,0.8h-3c-0.6,0-0.8-0.2-0.8-0.8v-18.3c0-0.6,0.2-0.8,0.8-0.8h2.8
					c0.6,0,0.8,0.2,0.8,0.8v1.8l0,0c0.2-0.2,0.6-0.6,1.2-0.8c0.4-0.4,1-0.6,1.6-0.8s1.2-0.4,1.6-0.8c0.6-0.2,1-0.4,1.6-0.4
					c0.2,0,0.4,0,0.6,0s0.2,0.2,0.4,0.6l0.2,2.6c0,0.2,0,0.6,0,0.6c0,0.2-0.2,0.2-0.8,0.4c-0.6,0.2-1.2,0.2-1.8,0.4
					c-0.6,0.2-1.2,0.4-1.8,0.4c-0.6,0.2-1.2,0.4-1.6,0.6c-0.6,0.2-1,0.4-1.2,0.4v13.3H356z"/>
				<path class="st6" d="M382.7,204.3c0,1.2,0,2.4-0.2,3.6c-0.2,1.2-0.6,2.4-1.2,3.4c-0.6,1-1.4,1.8-2.6,2.6c-1.2,0.6-2.8,1-4.8,1
					c-2,0-3.6-0.4-4.8-1s-2-1.4-2.6-2.6c-0.6-1-1-2.2-1-3.4c-0.2-1.2-0.2-2.4-0.2-3.6c0-1,0-2,0.2-3.2c0.2-1.2,0.6-2.2,1.2-3.2
					c0.6-1,1.4-1.8,2.6-2.6c1.2-0.6,2.6-1,4.6-1c2,0,3.6,0.2,4.6,0.8c1.2,0.6,2,1.4,2.6,2.4c0.6,1,1,2,1.2,3.2
					C382.5,201.9,382.7,203.1,382.7,204.3z M378.1,204.5c0-1,0-2-0.2-2.8c-0.2-0.8-0.4-1.4-0.6-2c-0.4-0.6-0.8-1-1.4-1.2
					c-0.6-0.2-1.2-0.4-2.2-0.4c-0.8,0-1.6,0.2-2,0.4c-0.4,0.2-1,0.6-1.2,1.2c-0.4,0.6-0.6,1.2-0.6,2c-0.2,0.8-0.2,1.8-0.2,2.8
					c0,1,0,2,0.2,2.8c0.2,0.8,0.4,1.4,0.6,2s0.8,1,1.2,1.2c0.4,0.2,1.2,0.4,2,0.4c1,0,1.6-0.2,2.2-0.4s1-0.6,1.4-1.2
					c0.4-0.6,0.6-1.2,0.6-2C378.1,206.5,378.1,205.7,378.1,204.5z"/>
				<path class="st6" d="M404,204.5c0,1.6-0.2,3-0.4,4.4c-0.2,1.2-0.6,2.4-1.2,3.2c-0.6,0.8-1.4,1.6-2.4,2c-1,0.4-2.4,0.6-4,0.6
					c-0.6,0-1.4,0-2.4-0.2c-0.8-0.2-1.8-0.4-2.8-0.6l0,0v7c0,0.2,0,0.4-0.2,0.6c-0.2,0.2-0.4,0.2-0.6,0.2h-2.8c-0.4,0-0.6,0-0.6-0.2
					c0-0.2-0.2-0.4-0.2-0.6v-25.5c0-0.6,0.2-0.8,0.8-0.8h2.8c0.2,0,0.4,0,0.6,0.2c0.2,0.2,0.2,0.4,0.2,0.6v1.2h0.2
					c0.4-0.2,0.8-0.4,1.2-0.8c0.4-0.2,1-0.6,1.6-0.8c0.6-0.2,1.2-0.4,1.8-0.6c0.6-0.2,1.2-0.2,1.8-0.2c1.4,0,2.4,0.2,3.2,0.8
					c0.8,0.4,1.6,1.2,2,2c0.4,0.8,0.8,2,1,3.2C404,201.5,404,202.9,404,204.5z M399.4,204.5c0-1.2,0-2.4-0.2-3
					c-0.2-0.6-0.4-1.4-0.6-1.8c-0.2-0.4-0.6-0.8-1-0.8c-0.4-0.2-0.8-0.2-1.4-0.2c-0.4,0-0.8,0-1.4,0.2c-0.6,0.2-1,0.2-1.6,0.4
					c-0.4,0.2-1,0.4-1.4,0.6c-0.4,0.2-0.8,0.4-1.2,0.6v10.1c1,0.2,1.8,0.4,2.4,0.6c0.6,0.2,1.4,0.2,2.2,0.2c0.8,0,1.4-0.2,1.8-0.4
					c0.4-0.2,0.8-0.6,1.2-1c0.4-0.6,0.6-1.2,0.6-2C399.4,206.7,399.4,205.7,399.4,204.5z"/>
				<path class="st6" d="M411.9,205.7c0,1,0.2,1.8,0.4,2.6c0.2,0.6,0.6,1.2,1,1.6c0.4,0.4,0.8,0.6,1.4,0.8c0.6,0.2,1.2,0.2,2.2,0.2
					c0.8,0,1.6,0,2.6-0.2c1-0.2,1.8-0.2,2.6-0.2c0.4,0,0.6,0,0.8,0s0.2,0.2,0.4,0.6l0.2,1.4c0,0.2,0,0.6,0,0.8s-0.2,0.4-0.6,0.6
					c-0.4,0.2-0.8,0.4-1.4,0.4s-1,0.2-1.6,0.4s-1.2,0.2-1.8,0.2s-1.2,0-1.6,0c-2,0-3.4-0.2-4.6-0.8c-1.2-0.6-2-1.4-2.6-2.2
					c-0.6-1-1-2-1.2-3.2c-0.2-1.2-0.4-2.4-0.4-3.8c0-1,0-2,0.2-3.2c0.2-1.2,0.6-2.4,1.2-3.4c0.6-1,1.4-2,2.6-2.6
					c1.2-0.8,2.6-1,4.6-1c1.8,0,3.2,0.2,4.4,0.8c1.2,0.6,2,1.2,2.6,2s1,1.8,1.2,2.8c0.2,1,0.4,2.2,0.4,3.2c0,0.8,0,1.4-0.4,1.8
					c-0.4,0.4-0.8,0.6-1.6,0.6h-11.1V205.7z M415.9,197.8c-0.8,0-1.4,0.2-1.8,0.4c-0.4,0.2-0.8,0.6-1.2,1c-0.4,0.4-0.6,1-0.6,1.6
					c-0.2,0.6-0.2,1.2-0.2,2h8c0-0.6,0-1.2-0.2-1.8c-0.2-0.6-0.4-1-0.6-1.6s-0.6-0.8-1.2-1C417.3,198,416.7,197.8,415.9,197.8z"/>
				<path class="st6" d="M440.6,212.1c-1,0.8-2.2,1.4-3.4,1.8c-1.2,0.4-2.6,0.8-4,0.8c-1,0-2-0.2-2.6-0.4c-0.8-0.2-1.2-0.6-1.6-1.2
					c-0.4-0.4-0.8-1-0.8-1.8c-0.2-0.6-0.2-1.4-0.2-2.4c0-2.4,0.6-4,1.8-5.2c1.2-1,3.2-1.6,5.6-1.6h5.2v-1c0-0.6,0-1-0.2-1.6
					c-0.2-0.4-0.4-0.8-0.6-1c-0.4-0.2-0.8-0.4-1.2-0.6c-0.6-0.2-1.2-0.2-2-0.2c-0.4,0-0.8,0-1.2,0c-0.4,0-1,0-1.4,0
					c-0.4,0-1,0-1.4,0.2c-0.4,0-1,0-1.4,0.2c-0.4,0-0.6,0-0.8,0c-0.2,0-0.2-0.2-0.4-0.6l-0.4-1.4c0-0.2,0-0.4,0-0.6
					c0.2-0.2,0.4-0.4,0.8-0.6c0.4-0.2,1-0.2,1.6-0.4c0.6-0.2,1.2-0.2,1.8-0.2c0.6,0,1.2-0.2,1.8-0.2c0.6,0,1.2,0,1.6,0
					c1.8,0,3.2,0.2,4.2,0.6c1,0.4,1.8,0.8,2.4,1.4s0.8,1.4,1,2.4c0.2,1,0.2,2,0.2,3v7.8c0,0.4,0,0.8,0,1c0,0.2,0.2,0.4,0.2,0.6
					c0,0.2,0.2,0.2,0.4,0.2c0.2,0,0.4,0,0.8,0.2c0.2,0,0.4,0,0.6,0.2c0.2,0,0.2,0.2,0.2,0.4v1.6c0,0.4-0.4,0.8-1,0.8
					c-0.4,0-0.6,0-1,0.2c-0.4,0-0.6,0-1,0c-1,0-1.6-0.2-2.2-0.6C441.2,213.7,440.8,213.1,440.6,212.1L440.6,212.1z M440.4,205.5
					h-4.8c-1,0-1.8,0.2-2.4,0.8c-0.6,0.4-0.8,1.4-0.8,2.6c0,0.8,0.2,1.4,0.6,1.8c0.4,0.4,1,0.6,2,0.6c0.4,0,0.8,0,1.4-0.2
					c0.6-0.2,1-0.2,1.6-0.4s1-0.4,1.4-0.6c0.4-0.2,1-0.4,1.2-0.6v-4H440.4z"/>
				<path class="st6" d="M466.9,214.3c-0.2,0.2-0.4,0.2-0.6,0.2h-3c-0.6,0-0.8-0.2-0.8-0.8v-11.3c0-1.2-0.2-2.2-0.6-2.8
					c-0.4-0.8-1.2-1-2.4-1c-0.4,0-0.8,0-1.4,0.2c-0.6,0.2-1,0.4-1.6,0.6c-0.6,0.2-1,0.4-1.4,0.6c-0.4,0.2-0.8,0.4-1,0.6v13.5
					c0,0.6-0.2,0.8-0.8,0.8h-2.8c-0.6,0-0.8-0.2-0.8-0.8v-18.3c0-0.6,0.2-0.8,0.8-0.8h2.8c0.6,0,0.8,0.2,0.8,0.8v1.2l0,0l0,0
					c0.4-0.2,0.8-0.6,1.4-0.8s1-0.6,1.6-0.8s1.2-0.4,1.8-0.6c0.6-0.2,1.2-0.2,1.8-0.2c1.4,0,2.4,0.2,3.2,0.6c0.8,0.4,1.4,1,1.8,1.6
					c0.4,0.6,0.6,1.6,0.8,2.4c0.2,1,0.2,1.8,0.2,3v11.7C466.9,213.9,466.9,214.1,466.9,214.3z"/>
			</g>
			<g class="st5">
				<path class="st6" d="M308.3,242.1c0-1.8,0.2-3.4,0.4-5c0.2-1.6,0.8-3.2,1.6-4.4c0.8-1.2,1.8-2.4,3.2-3.2
					c1.4-0.8,3.2-1.2,5.6-1.2c0.4,0,1,0,1.6,0s1.2,0.2,2,0.2c0.6,0,1.4,0.2,2,0.4s1.2,0.4,1.8,0.6c0.4,0.2,0.6,0.2,0.6,0.4
					s0.2,0.4,0.2,0.8l-0.4,1.6c0,0.2-0.2,0.4-0.2,0.6c-0.2,0.2-0.4,0.2-0.8,0c-1-0.2-2-0.2-3.2-0.4c-1.2-0.2-2.2-0.2-3.2-0.2
					c-1.4,0-2.4,0.2-3.2,0.8c-0.8,0.6-1.4,1.2-2,2c-0.4,0.8-0.8,2-0.8,3c0,1-0.2,2.4-0.2,3.8s0,2.6,0.2,3.6c0.2,1.2,0.4,2.2,1,3
					c0.4,0.8,1,1.6,2,2c0.8,0.4,1.8,0.8,3.2,0.8c1.2,0,2.2,0,3.2-0.2c1-0.2,2-0.2,3.2-0.4c0.4,0,0.6,0,0.8,0
					c0.2,0.2,0.2,0.2,0.4,0.6l0.4,1.6c0.2,0.6,0,1-0.6,1.2c-0.4,0.2-1,0.4-1.8,0.6c-0.6,0.2-1.4,0.2-2,0.4c-0.6,0.2-1.4,0.2-2,0.2
					s-1.2,0-1.8,0c-2.2,0-4-0.4-5.4-1.2c-1.4-0.8-2.6-1.8-3.2-3c-0.8-1.2-1.4-2.6-1.6-4.2C308.5,245.5,308.3,243.9,308.3,242.1z"/>
				<path class="st6" d="M347.9,245.1c0,1.2,0,2.4-0.2,3.6s-0.6,2.4-1.2,3.4c-0.6,1-1.4,1.8-2.6,2.6c-1.2,0.6-2.8,1-4.8,1
					c-2,0-3.6-0.4-4.8-1c-1.2-0.6-2-1.4-2.6-2.6c-0.6-1-1-2.2-1-3.4c-0.2-1.2-0.2-2.4-0.2-3.6c0-1,0-2,0.2-3.2
					c0.2-1.2,0.6-2.2,1.2-3.2c0.6-1,1.4-1.8,2.6-2.6c1.2-0.6,2.6-1,4.6-1c2,0,3.6,0.2,4.6,0.8c1.2,0.6,2,1.4,2.6,2.4
					c0.6,1,1,2,1.2,3.2C347.7,242.7,347.9,243.9,347.9,245.1z M343.3,245.3c0-1,0-2-0.2-2.8c-0.2-0.8-0.4-1.4-0.6-2
					c-0.4-0.6-0.8-1-1.4-1.2c-0.6-0.2-1.2-0.4-2.2-0.4c-0.8,0-1.6,0.2-2,0.4c-0.4,0.2-1,0.6-1.2,1.2c-0.4,0.6-0.6,1.2-0.6,2
					c-0.2,0.8-0.2,1.8-0.2,2.8c0,1,0,2,0.2,2.8s0.4,1.4,0.6,2c0.2,0.6,0.8,1,1.2,1.2c0.4,0.2,1.2,0.4,2,0.4c1,0,1.6-0.2,2.2-0.4
					c0.6-0.2,1-0.6,1.4-1.2c0.4-0.6,0.6-1.2,0.6-2S343.3,246.5,343.3,245.3z"/>
				<path class="st6" d="M380.7,255.1c0,0.2-0.2,0.2-0.6,0.2h-2.8c-0.6,0-0.8-0.2-0.8-0.8v-11.5c0-1.4-0.2-2.6-0.6-3
					c-0.4-0.6-1.2-0.8-2.2-0.8c-0.4,0-0.8,0-1.2,0.2c-0.4,0.2-1,0.2-1.4,0.4c-0.4,0.2-1,0.4-1.4,0.6c-0.4,0.2-0.8,0.4-1.2,0.6
					c0,0.2,0,0.4,0,0.8c0,0.4,0,0.8,0,1.2v11.5c0,0.2,0,0.4-0.2,0.6s-0.4,0.2-0.6,0.2h-3c-0.4,0-0.6-0.2-0.6-0.8v-11.7
					c0-1.2-0.2-2.2-0.6-2.8c-0.4-0.6-1-0.8-2-0.8c-0.4,0-0.8,0-1.2,0.2c-0.4,0.2-0.8,0.2-1.4,0.4c-0.4,0.2-1,0.4-1.4,0.6
					c-0.4,0.2-0.8,0.4-1.2,0.6v13.5c0,0.6-0.2,0.8-0.8,0.8h-2.8c-0.4,0-0.8-0.2-0.8-0.8v-18.3c0-0.6,0.2-0.8,0.8-0.8h2.8
					c0.6,0,0.8,0.2,0.8,0.8v1.2l0,0c0.4-0.2,0.8-0.6,1.2-0.8c0.4-0.2,1-0.6,1.4-0.8c0.4-0.2,1-0.4,1.6-0.6c0.6-0.2,1-0.2,1.6-0.2
					c1.2,0,2.2,0.2,3.2,0.6c1,0.4,1.8,1.2,2.4,2.2c1-0.8,2.2-1.4,3.4-2s2.4-0.8,3.8-0.8c1.4,0,2.4,0.2,3.2,0.6
					c0.8,0.4,1.4,1,1.8,1.6c0.4,0.6,0.6,1.4,0.8,2.4c0.2,1,0.2,1.8,0.2,2.8v12.1C380.7,254.7,380.7,254.9,380.7,255.1z"/>
				<path class="st6" d="M413.9,255.1c0,0.2-0.2,0.2-0.6,0.2h-2.8c-0.6,0-0.8-0.2-0.8-0.8v-11.5c0-1.4-0.2-2.6-0.6-3
					c-0.4-0.6-1.2-0.8-2.2-0.8c-0.4,0-0.8,0-1.2,0.2c-0.4,0.2-1,0.2-1.4,0.4c-0.4,0.2-1,0.4-1.4,0.6c-0.4,0.2-0.8,0.4-1.2,0.6
					c0,0.2,0,0.4,0,0.8c0,0.4,0,0.8,0,1.2v11.5c0,0.2,0,0.4-0.2,0.6c-0.2,0.2-0.4,0.2-0.6,0.2h-3c-0.4,0-0.6-0.2-0.6-0.8v-11.7
					c0-1.2-0.2-2.2-0.6-2.8c-0.4-0.6-1-0.8-2-0.8c-0.4,0-0.8,0-1.2,0.2c-0.4,0.2-0.8,0.2-1.4,0.4c-0.6,0.2-1,0.4-1.4,0.6
					c-0.4,0.2-0.8,0.4-1.2,0.6v13.5c0,0.6-0.2,0.8-0.8,0.8h-2.8c-0.4,0-0.8-0.2-0.8-0.8v-18.3c0-0.6,0.2-0.8,0.8-0.8h2.8
					c0.6,0,0.8,0.2,0.8,0.8v1.2l0,0c0.4-0.2,0.8-0.6,1.2-0.8c0.4-0.2,1-0.6,1.4-0.8c0.6-0.2,1-0.4,1.6-0.6c0.6-0.2,1-0.2,1.6-0.2
					c1.2,0,2.2,0.2,3.2,0.6c1,0.4,1.8,1.2,2.4,2.2c1-0.8,2.2-1.4,3.4-2s2.4-0.8,3.8-0.8s2.4,0.2,3.2,0.6c0.8,0.4,1.4,1,1.8,1.6
					c0.4,0.6,0.6,1.4,0.8,2.4c0.2,1,0.2,1.8,0.2,2.8v12.1C414.1,254.7,413.9,254.9,413.9,255.1z"/>
				<path class="st6" d="M423.5,230.2c0,0.4,0,0.6,0,1c0,0.2-0.2,0.6-0.4,0.8c-0.2,0.2-0.4,0.4-0.8,0.6c-0.4,0.2-0.8,0.2-1.2,0.2
					c-0.6,0-1,0-1.2-0.2c-0.4-0.2-0.6-0.4-0.8-0.6c-0.2-0.2-0.2-0.4-0.4-0.8c0-0.2,0-0.6,0-0.8c0-0.6,0.2-1.2,0.4-1.6
					c0.4-0.4,1-0.6,2-0.6c1,0,1.6,0.2,2,0.6C423.3,229,423.5,229.6,423.5,230.2z M423.3,254.5c0,0.2,0,0.4-0.2,0.6
					c0,0.2-0.2,0.2-0.6,0.2h-2.8c-0.6,0-0.8-0.2-0.8-0.8v-18.3c0-0.6,0.2-0.8,0.8-0.8h2.8c0.2,0,0.4,0,0.6,0.2
					c0,0.2,0.2,0.4,0.2,0.6V254.5z"/>
				<path class="st6" d="M443,249.3c0,1.2-0.2,2.2-0.6,3c-0.4,0.8-1,1.4-1.8,2c-0.8,0.4-1.6,0.8-2.6,1c-1,0.2-2,0.4-3,0.4
					s-2.2,0-3.2-0.2c-1.2-0.2-2.2-0.4-3-0.6c-0.4-0.2-0.6-0.4-0.8-0.6c-0.2-0.2-0.2-0.4,0-0.8l0.2-1.4c0-0.4,0.2-0.6,0.4-0.6
					c0.2,0,0.4,0,0.8,0c0.4,0,1,0.2,1.4,0.2c0.6,0,1,0,1.6,0.2c0.6,0,1,0,1.4,0.2c0.4,0,0.8,0,1.2,0c1.2,0,2.2-0.2,2.8-0.6
					c0.6-0.4,0.8-1,0.8-1.8c0-0.4,0-0.8-0.2-1.2s-0.2-0.6-0.6-0.8c-0.4-0.2-0.6-0.4-1-0.4c-0.4-0.2-1-0.2-1.6-0.4
					c-1-0.2-2-0.4-2.8-0.6c-0.8-0.2-1.6-0.6-2.4-1c-0.6-0.4-1.2-1-1.6-1.6c-0.4-0.6-0.6-1.6-0.6-2.6c0-2,0.6-3.4,2-4.6
					c1.4-1,3.2-1.6,5.4-1.6c0.4,0,0.8,0,1.4,0s1,0,1.6,0.2c0.6,0,1,0.2,1.6,0.2s1,0.2,1.4,0.4c0.6,0.2,1,0.6,0.8,1.2l-0.4,1.4
					c0,0.2-0.2,0.4-0.4,0.6c-0.2,0-0.4,0-0.8,0c-0.8-0.2-1.8-0.2-2.8-0.4c-1,0-1.8-0.2-2.6-0.2c-1.2,0-2.2,0.2-2.6,0.6
					c-0.4,0.4-0.6,1-0.6,1.8s0.2,1.2,0.8,1.6c0.6,0.2,1.4,0.4,2.6,0.6c1,0.2,1.8,0.4,2.8,0.6c1,0.2,1.6,0.6,2.4,1
					c0.6,0.4,1.2,1,1.6,1.8C442.8,247.1,443,248.1,443,249.3z"/>
				<path class="st6" d="M461.5,249.3c0,1.2-0.2,2.2-0.6,3c-0.4,0.8-1,1.4-1.8,2c-0.8,0.4-1.6,0.8-2.6,1c-1,0.2-2,0.4-3,0.4
					c-1,0-2.2,0-3.2-0.2c-1.2-0.2-2.2-0.4-3-0.6c-0.4-0.2-0.6-0.4-0.8-0.6c-0.2-0.2-0.2-0.4,0-0.8l0.2-1.4c0-0.4,0.2-0.6,0.4-0.6
					c0.2,0,0.4,0,0.8,0c0.4,0,1,0.2,1.4,0.2c0.6,0,1,0,1.6,0.2c0.6,0,1,0,1.4,0.2c0.4,0,0.8,0,1.2,0c1.2,0,2.2-0.2,2.8-0.6
					c0.6-0.4,0.8-1,0.8-1.8c0-0.4,0-0.8-0.2-1.2c-0.2-0.4-0.2-0.6-0.6-0.8c-0.4-0.2-0.6-0.4-1-0.4c-0.4-0.2-1-0.2-1.6-0.4
					c-1-0.2-2-0.4-2.8-0.6c-0.8-0.2-1.6-0.6-2.4-1c-0.6-0.4-1.2-1-1.6-1.6c-0.4-0.6-0.6-1.6-0.6-2.6c0-2,0.6-3.4,2-4.6
					c1.4-1,3.2-1.6,5.4-1.6c0.4,0,0.8,0,1.4,0c0.6,0,1,0,1.6,0.2c0.6,0,1,0.2,1.6,0.2c0.6,0,1,0.2,1.4,0.4c0.6,0.2,1,0.6,0.8,1.2
					l-0.4,1.4c0,0.2-0.2,0.4-0.4,0.6c-0.2,0-0.4,0-0.8,0c-0.8-0.2-1.8-0.2-2.8-0.4c-1,0-1.8-0.2-2.6-0.2c-1.2,0-2.2,0.2-2.6,0.6
					c-0.4,0.4-0.6,1-0.6,1.8s0.2,1.2,0.8,1.6c0.6,0.2,1.4,0.4,2.6,0.6c1,0.2,1.8,0.4,2.8,0.6c1,0.2,1.6,0.6,2.4,1
					c0.6,0.4,1.2,1,1.6,1.8C461.3,247.1,461.5,248.1,461.5,249.3z"/>
				<path class="st6" d="M470.6,230.2c0,0.4,0,0.6,0,1c0,0.2-0.2,0.6-0.4,0.8c-0.2,0.2-0.4,0.4-0.8,0.6c-0.4,0.2-0.8,0.2-1.2,0.2
					c-0.6,0-1,0-1.2-0.2c-0.4-0.2-0.6-0.4-0.8-0.6c-0.2-0.2-0.2-0.4-0.4-0.8c0-0.2,0-0.6,0-0.8c0-0.6,0.2-1.2,0.4-1.6
					c0.4-0.4,1-0.6,2-0.6s1.6,0.2,2,0.6C470.4,229,470.6,229.6,470.6,230.2z M470.4,254.5c0,0.2,0,0.4-0.2,0.6
					c0,0.2-0.2,0.2-0.6,0.2h-2.8c-0.6,0-0.8-0.2-0.8-0.8v-18.3c0-0.6,0.2-0.8,0.8-0.8h2.8c0.2,0,0.4,0,0.6,0.2
					c0,0.2,0.2,0.4,0.2,0.6V254.5z"/>
				<path class="st6" d="M492.5,245.1c0,1.2,0,2.4-0.2,3.6c-0.2,1.2-0.6,2.4-1.2,3.4c-0.6,1-1.4,1.8-2.6,2.6c-1.2,0.6-2.8,1-4.8,1
					c-2,0-3.6-0.4-4.8-1c-1.2-0.6-2-1.4-2.6-2.6c-0.6-1-1-2.2-1-3.4c-0.2-1.2-0.2-2.4-0.2-3.6c0-1,0-2,0.2-3.2s0.6-2.2,1.2-3.2
					c0.6-1,1.4-1.8,2.6-2.6c1.2-0.6,2.6-1,4.6-1c2,0,3.6,0.2,4.6,0.8c1.2,0.6,2,1.4,2.6,2.4c0.6,1,1,2,1.2,3.2
					C492.3,242.7,492.5,243.9,492.5,245.1z M487.9,245.3c0-1,0-2-0.2-2.8c-0.2-0.8-0.4-1.4-0.6-2c-0.4-0.6-0.8-1-1.4-1.2
					c-0.6-0.2-1.2-0.4-2.2-0.4c-0.8,0-1.6,0.2-2,0.4c-0.4,0.2-1,0.6-1.2,1.2c-0.4,0.6-0.6,1.2-0.6,2c-0.2,0.8-0.2,1.8-0.2,2.8
					c0,1,0,2,0.2,2.8c0.2,0.8,0.4,1.4,0.6,2c0.2,0.6,0.8,1,1.2,1.2c0.4,0.2,1.2,0.4,2,0.4c1,0,1.6-0.2,2.2-0.4
					c0.6-0.2,1-0.6,1.4-1.2c0.4-0.6,0.6-1.2,0.6-2S487.9,246.5,487.9,245.3z"/>
				<path class="st6" d="M513.4,255.1c-0.2,0.2-0.4,0.2-0.6,0.2h-3c-0.6,0-0.8-0.2-0.8-0.8v-11.3c0-1.2-0.2-2.2-0.6-2.8
					c-0.4-0.8-1.2-1-2.4-1c-0.4,0-0.8,0-1.4,0.2c-0.6,0.2-1,0.4-1.6,0.6c-0.6,0.2-1,0.4-1.4,0.6c-0.4,0.2-0.8,0.4-1,0.6v13.1
					c0,0.6-0.2,0.8-0.8,0.8h-2.8c-0.6,0-0.8-0.2-0.8-0.8v-18.3c0-0.6,0.2-0.8,0.8-0.8h2.8c0.6,0,0.8,0.2,0.8,0.8v1.2l0,0l0,0
					c0.4-0.2,0.8-0.6,1.4-0.8s1-0.6,1.6-0.8c0.6-0.2,1.2-0.4,1.8-0.6c0.6-0.2,1.2-0.2,1.8-0.2c1.4,0,2.4,0.2,3.2,0.6
					c0.8,0.4,1.4,1,1.8,1.6c0.4,0.6,0.6,1.6,0.8,2.4c0.2,1,0.2,1.8,0.2,3v11.9C513.6,254.7,513.4,254.9,513.4,255.1z"/>
			</g>
			<rect x="531.5" y="178.1" class="st3" width="6.6" height="77.8"/>
		</g>
	</g>
</g>
</svg>
